<svg id="SvgjsSvg1001" width="288" height="288" xmlns="http://www.w3.org/2000/svg" version="1.1" xmlns:xlink="http://www.w3.org/1999/xlink" xmlns:svgjs="http://svgjs.com/svgjs"><defs id="SvgjsDefs1002"></defs><g id="SvgjsG1008"><svg xmlns="http://www.w3.org/2000/svg" viewBox="0 0 1024 1024" width="288" height="288"><path fill="#f1f7fa" d="M0 0 C337.92 0 675.84 0 1024 0 C1024 337.92 1024 675.84 1024 1024 C686.08 1024 348.16 1024 0 1024 C0 686.08 0 348.16 0 0 Z " class="colorFEFEFE svgShape"></path><path fill="#04949d" d="M0 0 C0.63711914 0.07541016 1.27423828 0.15082031 1.93066406 0.22851562 C23.00391375 2.72890121 43.51625492 6.33924153 64 12 C65.09570312 12.30276855 66.19140625 12.60553711 67.3203125 12.91748047 C108.22915515 24.44445 148.21877074 42.43316492 183 67 C183.69899414 67.48936035 184.39798828 67.9787207 185.11816406 68.48291016 C200.47204441 79.26150871 214.93224193 90.80931665 228.57861328 103.68017578 C230.61155911 105.56786131 232.71643875 107.37044857 234.8125 109.1875 C245.86266693 119.10014975 255.80658013 130.37156621 265 142 C265.84949219 143.00804687 266.69898438 144.01609375 267.57421875 145.0546875 C282.85927662 163.31154408 295.82711213 184.01450301 307 205 C307.49161621 205.92280762 307.98323242 206.84561523 308.48974609 207.79638672 C333.83527275 255.87726548 348.0350723 308.00757125 353 362 C353.10803955 363.1122998 353.10803955 363.1122998 353.21826172 364.24707031 C358.31364106 418.17429467 349.96381239 475.01423018 332 526 C331.64776367 527.03753418 331.29552734 528.07506836 330.93261719 529.14404297 C321.52150329 556.83685319 308.68374542 583.31242644 293 608 C292.55462891 608.70205566 292.10925781 609.40411133 291.65039062 610.12744141 C278.73430972 630.30759655 264.04347507 650.70785431 246.68701172 667.31030273 C244.9491951 669.05088577 243.36576515 670.86805696 241.7734375 672.7421875 C238.21320423 676.83442041 234.41633498 680.56832101 230.4375 684.25 C229.74060059 684.89767334 229.04370117 685.54534668 228.32568359 686.21264648 C221.70473943 692.33059137 214.96547282 698.27724548 208 704 C207.36497559 704.52352051 206.72995117 705.04704102 206.07568359 705.58642578 C186.84220369 721.31011232 165.78998313 735.09403797 144 747 C142.80044678 747.66539795 142.80044678 747.66539795 141.57666016 748.34423828 C62.25281599 792.17497073 -35.18993882 806.10602242 -160.94232178 779.60083008 C-180.48861057 773.89342739 -199.59506893 766.70490441 -218 758 C-218.98403809 757.53480957 -219.96807617 757.06961914 -220.98193359 756.59033203 C-250.93512878 742.28981948 -278.5637083 724.32159746 -304 703 C-304.84014648 702.29738037 -304.84014648 702.29738037 -305.69726562 701.58056641 C-312.39428749 695.96494889 -318.88942343 690.29116773 -324.984375 684.015625 C-326.95516371 682.04483629 -328.99929553 680.23866943 -331.125 678.4375 C-334.39199745 675.62531984 -337.18725725 672.6309687 -339.96875 669.34375 C-341.99090406 667.01049531 -344.08901662 664.76127978 -346.20751953 662.515625 C-352.94689524 655.34743811 -359.07191803 647.84673036 -365 640 C-365.54414551 639.28569824 -366.08829102 638.57139648 -366.64892578 637.83544922 C-411.76084534 578.46291721 -437.27032129 509.77669718 -446 436 C-446.11859375 435.04593262 -446.2371875 434.09186523 -446.359375 433.10888672 C-457.28236717 343.01045574 -431.65416911 245.74027415 -363 147 C-357.28542606 139.84860851 -351.19541753 133.02258839 -345.03515625 126.25390625 C-343.21581284 124.23900961 -341.44809804 122.19105119 -339.6875 120.125 C-332.42908954 111.80314801 -324.41823605 104.13334739 -316 97 C-314.98590881 96.1118978 -313.9729921 95.2224536 -312.9609375 94.33203125 C-231.73999238 23.20501861 -128.17928775 -5.4919661 0 0 Z " transform="translate(559 115)" class="color04949D svgShape"></path><path fill="#f1f7fa" d="M0 0 C1.09521973 0.21430664 2.19043945 0.42861328 3.31884766 0.64941406 C25.72704961 5.12779508 47.45774737 11.94749774 68 22 C68.89041992 22.43296387 69.78083984 22.86592773 70.69824219 23.31201172 C84.60603577 30.14228368 97.5106257 37.8331863 110 47 C110.61020996 47.44585449 111.22041992 47.89170898 111.84912109 48.35107422 C115.64151857 51.14304303 119.33796963 54.03792733 123 57 C123.53334961 57.43038574 124.06669922 57.86077148 124.61621094 58.30419922 C139.08537568 70.07478373 152.55574502 83.26260225 164 98 C164.67289063 98.78246094 165.34578125 99.56492187 166.0390625 100.37109375 C178.35486353 114.72460005 188.36262953 131.21816294 197 148 C197.34724121 148.67385742 197.69448242 149.34771484 198.05224609 150.04199219 C214.86694116 183.15722061 226.12578443 221.79352154 226.16796875 259.11328125 C226.17129715 260.1629155 226.17462555 261.21254974 226.17805481 262.29399109 C226.18309563 264.51019863 226.18546402 266.72641369 226.18530273 268.94262695 C226.18746878 272.26462012 226.20559868 275.58626945 226.22460938 278.90820312 C226.27442292 297.02519567 225.13608678 314.56684275 221.3125 332.3125 C221.05049805 333.54250732 220.78849609 334.77251465 220.51855469 336.03979492 C208.42618017 391.19430005 178.18821541 447.63760449 134 484 C132.8851833 484.95132861 131.77205755 485.90464053 130.66015625 486.859375 C129.46115419 487.88566988 128.26193453 488.91171058 127.0625 489.9375 C126.48177734 490.43531982 125.90105469 490.93313965 125.30273438 491.44604492 C121.11443349 495 121.11443349 495 120 495 C119.99853344 494.04878014 119.99706688 493.09756027 119.99555588 492.11751556 C119.95894993 468.96503279 119.89948591 445.81269455 119.81609726 422.66033173 C119.77629938 411.46398175 119.74391065 400.26770213 119.72900391 389.07128906 C119.71599132 379.3117246 119.68903658 369.55231492 119.64538693 359.79283762 C119.62276342 354.6259401 119.60708986 349.45923355 119.60811615 344.2922821 C119.60886223 339.42652087 119.59093226 334.56118191 119.55883217 329.69552994 C119.55033079 327.91219636 119.54858486 326.12881544 119.55419731 324.34547043 C119.56085533 321.90426175 119.54287505 319.46438962 119.51898193 317.02331543 C119.52674235 316.32290178 119.53450277 315.62248813 119.54249835 314.90084982 C119.45100547 309.59522371 117.98874047 305.33569833 115 301 C108.47350723 295.43029033 99.71337175 296.41706983 91.625 296.46875 C90.13101957 296.46605043 88.63704087 296.46216415 87.14306641 296.45715332 C84.0229406 296.45128001 80.9032751 296.45975031 77.78320312 296.47851562 C73.80204623 296.50130462 69.82196823 296.48816974 65.84085083 296.46422577 C62.75911463 296.44970848 59.6776304 296.45440068 56.59588623 296.46473694 C55.12880319 296.4673879 53.6616966 296.46419239 52.19464111 296.45481873 C40.87899662 296.19082858 40.87899662 296.19082858 31 301 C26.19163072 306.64559168 25.27442656 311.68208477 25.36076355 318.92150879 C25.35240787 319.89206254 25.3440522 320.8626163 25.33544332 321.86258078 C25.31357807 325.09951257 25.32710118 328.33530278 25.34057617 331.57226562 C25.33212048 333.89854796 25.32147523 336.22482321 25.30880737 338.55108643 C25.2806666 344.85629552 25.28313186 351.16116434 25.29110122 357.46641731 C25.29390966 363.39122643 25.27378525 369.31592057 25.25378648 375.24068993 C25.2149335 386.97166393 25.19823612 398.7025598 25.19555664 410.43359375 C25.19290697 421.82556158 25.17977013 433.21743815 25.15258789 444.609375 C25.15091451 445.31220417 25.14924113 446.01503334 25.14751705 446.73916036 C25.13905725 450.26523653 25.13039189 453.79131216 25.12162435 457.31738758 C25.04921621 486.54490189 25.01317078 515.77240018 25 545 C22.16634212 545.80501416 19.33151152 546.60542133 16.49584961 547.40332031 C15.70380882 547.62883575 14.91176804 547.8543512 14.09572601 548.08670044 C6.65217037 550.174389 -0.79703875 551.55730359 -8.4375 552.75 C-9.69498047 552.95753906 -10.95246094 553.16507813 -12.24804688 553.37890625 C-80.66739838 564.43153729 -156.2931814 549.65378539 -213 509 C-213.71542969 508.49065918 -214.43085938 507.98131836 -215.16796875 507.45654297 C-224.97489139 500.45131255 -234.25625576 493.30504427 -243 485 C-244.2652029 483.91009629 -245.53578407 482.8263944 -246.8125 481.75 C-256.81149499 473.02659696 -265.79611515 463.41441929 -274 453 C-274.68964844 452.18917969 -275.37929688 451.37835937 -276.08984375 450.54296875 C-305.59882824 415.80454397 -324.49407082 372.81346768 -333.25 328.3125 C-333.40114258 327.55509521 -333.55228516 326.79769043 -333.70800781 326.01733398 C-336.6540645 310.07171901 -337.37819582 294.05488949 -337.3125 277.875 C-337.31067719 276.93634094 -337.30885437 275.99768188 -337.30697632 275.03057861 C-337.25849282 260.14851251 -336.57414259 245.68730769 -334 231 C-333.83371094 230.0001709 -333.66742188 229.0003418 -333.49609375 227.97021484 C-329.43294846 203.9713224 -322.35107261 181.02601999 -312 159 C-311.60554688 158.15743652 -311.21109375 157.31487305 -310.8046875 156.44677734 C-302.28892663 138.44349741 -292.15139003 121.77339304 -280 106 C-279.28972656 105.07574219 -278.57945312 104.15148437 -277.84765625 103.19921875 C-273.88562032 98.15448786 -269.70138017 93.34857796 -265.37109375 88.6171875 C-264.04718996 87.15587689 -262.73140364 85.68670096 -261.44799805 84.18969727 C-257.19368375 79.23186142 -252.70624144 74.65065877 -247.9375 70.1875 C-246.82604614 69.14601807 -246.82604614 69.14601807 -245.69213867 68.08349609 C-239.0937751 61.96952638 -232.23225706 56.34243145 -225 51 C-224.4215332 50.56993652 -223.84306641 50.13987305 -223.24707031 49.69677734 C-187.97182643 23.59543169 -147.09065904 6.85948825 -104 -1 C-103.13004395 -1.16516113 -102.26008789 -1.33032227 -101.36376953 -1.50048828 C-68.9663868 -7.3617173 -32.21378599 -6.52720351 0 0 Z " transform="translate(567 234)" class="colorFEFEFE svgShape"></path><path fill="#01a374" d="M0 0 C0.65083054 -0.0065712 1.30166107 -0.0131424 1.97221375 -0.01991272 C4.12511316 -0.03961353 6.2779428 -0.05130314 8.4309082 -0.0612793 C9.16838602 -0.06535482 9.90586384 -0.06943035 10.66568947 -0.07362938 C14.5717198 -0.0944798 18.47771514 -0.10878402 22.38378906 -0.11816406 C26.40420302 -0.12920609 30.42406009 -0.1635827 34.44427776 -0.20333576 C37.54739865 -0.22957626 40.65038856 -0.2378626 43.75361061 -0.24144554 C45.23468586 -0.24629502 46.71575591 -0.25786202 48.19672203 -0.27648354 C64.42415231 -0.46778768 64.42415231 -0.46778768 69.54418945 4.17700195 C73.21682386 8.79057643 74.12980884 12.34290208 74.08576965 18.1025238 C74.09553744 18.88266989 74.10530524 19.66281598 74.11536902 20.46660286 C74.14295245 23.07138616 74.14209833 25.67535599 74.14111328 28.28027344 C74.15472394 30.15156247 74.16995771 32.02284029 74.18669128 33.894104 C74.22626762 38.97054187 74.23978676 44.04672434 74.2461493 49.12330127 C74.2512169 52.29571603 74.26172873 55.46806508 74.27414513 58.64045906 C74.31712563 69.71004957 74.33836075 80.77944974 74.34033203 91.84912109 C74.34276752 102.16509242 74.39379539 112.48005925 74.46722394 122.79574722 C74.52806596 131.65624265 74.55424796 140.51640697 74.55366725 149.37711006 C74.55395053 154.66775271 74.56839859 159.95743203 74.61802101 165.24786186 C74.66354864 170.22325875 74.66594063 175.19683975 74.63533211 180.17233276 C74.63142486 181.99645928 74.64285571 183.82069391 74.67087173 185.64460945 C74.86905671 199.41034796 74.86905671 199.41034796 71.62177086 203.74046516 C69.33527189 205.54969509 67.13588119 206.85629821 64.54418945 208.17700195 C63.07147518 209.21947739 61.61124265 210.28000902 60.16918945 211.36450195 C38.65918079 226.1943837 16.61867979 236.94809183 -7.76831055 246.11450195 C-8.97837769 246.57481812 -8.97837769 246.57481812 -10.21289062 247.04443359 C-10.96981201 247.32407959 -11.7267334 247.60372559 -12.5065918 247.8918457 C-13.17343994 248.1405542 -13.84028809 248.3892627 -14.52734375 248.64550781 C-16.45581055 249.17700195 -16.45581055 249.17700195 -20.45581055 249.17700195 C-20.56991423 219.24822536 -20.65837989 189.3194561 -20.71113719 159.3905088 C-20.7173906 155.85579783 -20.72386223 152.32108728 -20.73046875 148.78637695 C-20.7317803 148.08269035 -20.73309185 147.37900375 -20.73444315 146.65399331 C-20.7561899 135.2653111 -20.79560734 123.8767553 -20.84157453 112.48814803 C-20.88835962 100.79926902 -20.91611026 89.11045613 -20.92625302 77.42148733 C-20.93277302 70.8572255 -20.94810345 64.29325022 -20.98446083 57.7290802 C-21.01840708 51.55014812 -21.028866 45.37162054 -21.02134895 39.19260406 C-21.02272408 36.92546134 -21.03266429 34.65830504 -21.05183792 32.39124298 C-21.07675377 29.29317 -21.0707202 26.19661972 -21.05708313 23.09851074 C-21.07164734 22.20354968 -21.08621154 21.30858861 -21.10121709 20.38650751 C-21.02754162 14.18467361 -19.47075647 9.95381777 -15.45581055 5.17700195 C-10.23813041 1.10721145 -6.52350332 0.05455111 0 0 Z " transform="translate(612.456 529.823)" class="color01A374 svgShape"></path><path fill="#0d73a9" d="M0 0 C3.79993179 5.95336261 -1.56295422 19.29558567 -2.96937561 26.04853821 C-3.28033429 27.55663551 -3.59093926 29.06480578 -3.9012146 30.57304382 C-4.72779893 34.5856266 -5.55947993 38.59713591 -6.39244461 42.60839844 C-7.25149408 46.74842382 -8.1065996 50.88926397 -8.96229553 55.02998352 C-10.31650717 61.58004589 -11.67385394 68.12945157 -13.03334045 74.67842102 C-14.41785618 81.34826595 -15.79550925 88.01947594 -17.16764832 94.69187927 C-17.99575315 98.71611687 -18.82766444 102.7395586 -19.661026 106.76271057 C-20.03060681 108.54981237 -20.39879159 110.3372035 -20.76551819 112.12489319 C-21.26267729 114.54568887 -21.76556411 116.96522035 -22.27015686 119.38447571 C-22.40907852 120.06746735 -22.54800018 120.75045898 -22.69113159 121.45414734 C-24.56999381 130.37571891 -24.56999381 130.37571891 -26.90687561 132.71260071 C-29.94424627 133.08515725 -31.44345567 133.02097627 -34.02015686 131.30635071 C-34.74589905 130.61541321 -35.47164124 129.92447571 -36.21937561 129.21260071 C-37.07402405 128.41080383 -37.92867249 127.60900696 -38.80921936 126.78291321 C-41.24174157 124.40339601 -43.6088805 121.96435329 -45.97328186 119.51728821 C-46.683797 118.78832336 -47.39431213 118.05935852 -48.12635803 117.30830383 C-49.55429945 115.83717969 -50.9700865 114.35415191 -52.37294006 112.85908508 C-53.03124817 112.17910461 -53.68955627 111.49912415 -54.36781311 110.79853821 C-54.95353088 110.18027161 -55.53924866 109.562005 -56.14271545 108.92500305 C-57.83158723 107.49257213 -57.83158723 107.49257213 -59.94252014 107.86885071 C-63.28580733 109.30489353 -65.75226717 111.90789315 -68.40687561 114.33760071 C-88.93501227 132.58908713 -111.90001279 147.49435866 -135.90687561 160.71260071 C-136.68079651 161.14282532 -137.45471741 161.57304993 -138.25209045 162.01631165 C-188.50139207 189.82765551 -243.8148883 204.86607352 -299.28187561 218.15010071 C-300.5890152 218.46429459 -300.5890152 218.46429459 -301.92256165 218.78483582 C-332.74063544 226.16990798 -332.74063544 226.16990798 -343.65687561 226.02510071 C-344.95109436 226.02123352 -346.24531311 226.01736633 -347.57875061 226.01338196 C-350.6283616 225.73777158 -352.3558022 225.32956896 -354.90687561 223.71260071 C-354.90687561 222.39260071 -354.90687561 221.07260071 -354.90687561 219.71260071 C-354.29618225 219.52786194 -353.68548889 219.34312317 -353.05628967 219.15278625 C-291.65353019 200.42118805 -232.17866313 169.55368663 -181.55433655 129.9967804 C-179.87743216 128.68964983 -178.19343857 127.39208498 -176.50843811 126.09541321 C-164.33607682 116.68543969 -152.82705981 106.56179023 -141.53187561 96.12275696 C-139.37073132 94.13849204 -137.18847853 92.19370011 -134.96937561 90.27510071 C-130.89451153 86.74017721 -126.9395371 83.08054779 -122.98548889 79.41181946 C-120.18608273 76.81451598 -117.37879864 74.22786688 -114.54359436 71.66963196 C-114.00573303 71.1826886 -113.4678717 70.69574524 -112.91371155 70.19404602 C-111.43314688 68.85536496 -109.94940764 67.52019736 -108.46546936 66.18525696 C-106.03104441 63.83259896 -103.95355516 61.40458628 -101.90687561 58.71260071 C-106.99649024 53.52912023 -112.0979128 48.43745364 -117.61781311 43.71260071 C-120.74699774 40.97856909 -123.79426968 38.15926999 -126.84437561 35.33760071 C-127.42485657 34.80086731 -128.00533752 34.26413391 -128.60340881 33.71113586 C-133.89969787 28.80591139 -133.89969787 28.80591139 -134.09437561 26.27510071 C-133.90687561 23.71260071 -133.90687561 23.71260071 -131.90687561 21.71260071 C-129.98883057 21.13523865 -129.98883057 21.13523865 -127.59901428 20.66621399 C-126.69266235 20.48444107 -125.78631042 20.30266815 -124.85249329 20.11538696 C-123.85336914 19.92317062 -122.854245 19.73095428 -121.82484436 19.53291321 C-120.77182129 19.32389877 -119.71879822 19.11488434 -118.63386536 18.89953613 C-115.12217571 18.20449897 -111.60840614 17.52069684 -108.09437561 16.83760071 C-105.64252866 16.35661108 -103.19078874 15.8750755 -100.739151 15.39302063 C-96.86736303 14.63208931 -92.99545883 13.87179483 -89.12280273 13.11529541 C-80.1608468 11.36303552 -71.20904732 9.56454681 -62.26103783 7.74250793 C-58.13262182 6.90351948 -54.00260998 6.07242535 -49.87250996 5.2417717 C-46.54668204 4.57234916 -43.22189826 3.89846337 -39.89915466 3.21388245 C-36.16327267 2.44689431 -32.42429072 1.69713429 -28.68421936 0.95088196 C-27.5966333 0.72329697 -26.50904724 0.49571198 -25.38850403 0.26123047 C-5.4210436 -3.65993862 -5.4210436 -3.65993862 0 0 Z " transform="translate(697.907 362.287)" class="color0D73A9 svgShape"></path><path fill="#fecc26" d="M0 0 C1.29517044 -0.0127597 2.59034088 -0.02551941 3.92475891 -0.03866577 C5.3315923 -0.04172391 6.73842771 -0.04395141 8.14526367 -0.04541016 C9.59869008 -0.05184334 11.0521152 -0.05857209 12.50553894 -0.06558228 C15.54929605 -0.07753937 18.59293982 -0.0812648 21.63671875 -0.08007812 C25.52036431 -0.07987519 29.403276 -0.1071569 33.28674793 -0.14162254 C36.28866353 -0.16395815 39.29040449 -0.16791362 42.29239464 -0.16685867 C43.7232179 -0.16920541 45.15404665 -0.1779763 46.58478737 -0.19352341 C61.56704171 -0.34106833 61.56704171 -0.34106833 67.50073242 4.29052734 C71.80367861 8.85955784 73.23227904 12.90246782 73.102005 19.19358826 C73.10627713 19.95910997 73.11054925 20.72463168 73.11495084 21.51335102 C73.1231463 24.06264906 73.09575509 26.610279 73.06835938 29.15942383 C73.06694815 30.99294496 73.06774234 32.82646891 73.0705719 34.6599884 C73.07200455 39.62660637 73.04263903 44.59261869 73.00770211 49.5590961 C72.97641358 54.75340107 72.97350589 59.94772043 72.96757507 65.1421051 C72.952044 74.97347819 72.91102537 84.80457277 72.86082762 94.63582331 C72.80491136 105.83041284 72.77744189 117.02501578 72.75235045 128.21971023 C72.70010898 151.24347024 72.61218087 174.26698318 72.50073242 197.29052734 C68.5741785 197.79057928 64.64625971 198.27902776 60.71801758 198.765625 C59.62179581 198.90537247 58.52557404 199.04511993 57.39613342 199.18910217 C47.46449933 200.40961293 37.65006562 200.75016798 27.65209961 200.68164062 C24.86677469 200.66547536 22.08289102 200.68167973 19.29760742 200.70068359 C9.50900439 200.70761368 -0.00112209 200.11688129 -9.69995117 198.765625 C-10.74636276 198.6243367 -11.79277435 198.4830484 -12.87089539 198.33747864 C-15.41439 197.99335076 -17.95710147 197.64431229 -20.49926758 197.29052734 C-20.56933506 173.40355298 -20.6222447 149.516594 -20.65470409 125.62953758 C-20.67017585 114.53847189 -20.69127132 103.44747003 -20.72558594 92.35644531 C-20.75547878 82.6900038 -20.77484034 73.02360851 -20.78153306 63.35712206 C-20.7854455 58.23834233 -20.7946468 53.11969485 -20.81645775 48.00095749 C-20.83682101 43.1829354 -20.84310167 38.36510007 -20.83859062 33.54703903 C-20.83941589 31.77896103 -20.84538249 30.01087678 -20.856884 28.242836 C-20.87182573 25.82746362 -20.86821527 23.41279491 -20.86003113 20.99740601 C-20.86876965 20.29894857 -20.87750818 19.60049113 -20.8865115 18.88086832 C-20.84451225 14.29016487 -19.90208613 11.19125482 -17.49926758 7.29052734 C-11.93256774 1.96585794 -7.65156902 0.05129256 0 0 Z " transform="translate(485.5 589.71)" class="colorFECC26 svgShape"></path><path fill="#f44641" d="M0 0 C1.02473671 -0.0098568 1.02473671 -0.0098568 2.07017517 -0.01991272 C4.33552152 -0.0396543 6.60080149 -0.05131139 8.86621094 -0.0612793 C9.64019981 -0.06535482 10.41418869 -0.06943035 11.21163177 -0.07362938 C15.30986769 -0.09449582 19.40807009 -0.10879387 23.50634766 -0.11816406 C27.73436005 -0.12921756 31.96184454 -0.16360301 36.18967056 -0.20333576 C39.44454915 -0.22951754 42.69930241 -0.23785735 45.95427704 -0.24144554 C47.51236274 -0.2463091 49.07044293 -0.25791664 50.6284256 -0.27648354 C52.81390297 -0.30090516 54.99802091 -0.29990515 57.18359375 -0.29296875 C59.04652069 -0.30176811 59.04652069 -0.30176811 60.94708252 -0.31074524 C66.38480851 0.46852108 69.40644559 2.92665392 72.66308594 7.23950195 C74.9470792 11.21534207 75.47518642 13.96630484 75.47084045 18.47306824 C75.47290245 20.12001427 75.47290245 20.12001427 75.4750061 21.80023193 C75.46961319 23.6074472 75.46961319 23.6074472 75.46411133 25.45117188 C75.46425735 26.71957413 75.46440338 27.98797638 75.46455383 29.29481506 C75.46484105 32.77387943 75.45895651 36.25290941 75.45197988 39.73196578 C75.44573378 43.36747676 75.44514154 47.00298851 75.44395447 50.63850403 C75.44084486 57.52327578 75.43263646 64.40803167 75.42260498 71.29279643 C75.41143235 79.13068324 75.40593049 86.96857081 75.40090954 94.8064636 C75.39045355 110.92998567 75.37286126 127.05349179 75.35058594 143.17700195 C71.07976924 142.59894362 67.20236119 141.9555125 63.15527344 140.4621582 C61.72658936 139.93549561 61.72658936 139.93549561 60.26904297 139.39819336 C59.26470215 139.0158252 58.26036133 138.63345703 57.22558594 138.23950195 C56.17097168 137.83908691 55.11635742 137.43867187 54.02978516 137.02612305 C30.32573912 127.86216941 8.55149126 115.61259136 -11.64941406 100.17700195 C-12.66439972 99.48551559 -13.67938538 98.79402924 -14.72512817 98.08158875 C-17.43993058 95.79423911 -17.63412729 95.25176625 -18.39785767 91.51652527 C-18.4272456 90.08097852 -18.42385183 88.64452245 -18.39404297 87.20898438 C-18.40499496 86.02747551 -18.40499496 86.02747551 -18.41616821 84.82209778 C-18.43234664 82.22467072 -18.4051888 79.62975364 -18.37597656 77.0324707 C-18.37493859 75.22032167 -18.37597696 73.40817037 -18.3789978 71.59602356 C-18.37881849 67.79869946 -18.35799542 64.0022257 -18.32177734 60.20507812 C-18.27649844 55.35282378 -18.27529782 50.50181654 -18.28881264 45.64940929 C-18.29551859 41.90624537 -18.28218139 38.16336235 -18.26255417 34.42025185 C-18.25488784 32.63221014 -18.25253804 30.84413707 -18.25572586 29.05608177 C-18.25647327 26.54785845 -18.2310616 24.04119105 -18.19873047 21.53320312 C-18.2036853 20.80306 -18.20864014 20.07291687 -18.21374512 19.32064819 C-18.10324145 13.91048424 -16.62527831 9.71093972 -13.64941406 5.17700195 C-8.95900575 0.8216228 -6.32389856 0.05025455 0 0 Z " transform="translate(354.65 634.823)" class="colorF44641 svgShape"></path><path fill="#f2332d" d="M0 0 C0.66 0 1.32 0 2 0 C3.45506085 25.68297882 2.70113952 51.30268027 2 77 C1.01 77.495 1.01 77.495 0 78 C0 52.26 0 26.52 0 0 Z " transform="translate(337 651)" class="colorF2332D svgShape"></path><path fill="#018692" d="M0 0 C0.33 0 0.66 0 1 0 C1 16.5 1 33 1 50 C0.67 50 0.34 50 0 50 C-1.92472329 33.03319319 -1.92472329 16.96680681 0 0 Z " transform="translate(229 487)" class="color018692 svgShape"></path><path fill="#0969a5" d="M0 0 C0 0.66 0 1.32 0 2 C4.78478822 2.09764874 9.27685687 1.77112541 14 1 C11.19232924 3.80767076 7.93224584 4.26381826 4.1875 5.1875 C3.47529297 5.37763672 2.76308594 5.56777344 2.02929688 5.76367188 C-1.97347017 6.76714076 -5.02291281 7.22672434 -9 6 C-8.3125 3.5625 -8.3125 3.5625 -7 1 C-4.54115028 0.20087384 -2.56909202 0 0 0 Z " transform="translate(425 568)" class="color0969A5 svgShape"></path><path fill="#0e68a1" d="M0 0 C-0.33 1.65 -0.66 3.3 -1 5 C-1.515625 4.608125 -2.03125 4.21625 -2.5625 3.8125 C-5.21007555 2.65731194 -5.21007555 2.65731194 -8.6875 4.25 C-12.0502828 5.61561249 -12.0502828 5.61561249 -13 8 C-9.04 8.33 -5.08 8.66 -1 9 C-1 9.33 -1 9.66 -1 10 C-2.74965358 10.05429959 -4.49979787 10.09292823 -6.25 10.125 C-7.22453125 10.14820313 -8.1990625 10.17140625 -9.203125 10.1953125 C-12.0196498 9.99862781 -13.60949036 9.44568916 -16 8 C-16 6.68 -16 5.36 -16 4 C-14.08594633 3.32586789 -12.16863974 2.6609668 -10.25 2 C-9.18265625 1.62875 -8.1153125 1.2575 -7.015625 0.875 C-4 0 -4 0 0 0 Z " transform="translate(359 578)" class="color0E68A1 svgShape"></path><path fill="#088791" d="M0 0 C5.01572286 4.05526529 9.25038409 8.41850578 13.51171875 13.25390625 C17.82575509 18.01492281 22.41976509 22.49681577 27 27 C24 27 24 27 22.31420898 25.62304688 C21.71423096 24.99462891 21.11425293 24.36621094 20.49609375 23.71875 C19.83802734 23.04199219 19.17996094 22.36523438 18.50195312 21.66796875 C17.82068359 20.95253906 17.13941406 20.23710938 16.4375 19.5 C15.08659493 18.08936536 13.73134084 16.6828785 12.37109375 15.28125 C11.77224365 14.65283203 11.17339355 14.02441406 10.55639648 13.37695312 C9.09669049 11.77912936 9.09669049 11.77912936 7 12 C6.38125 10.63875 6.38125 10.63875 5.75 9.25 C4.10256403 6.19047606 2.46618157 4.38114082 0 2 C0 1.34 0 0.68 0 0 Z " transform="translate(294 689)" class="color088791 svgShape"></path><path fill="#f13a34" d="M0 0 C0.66 0.66 1.32 1.32 2 2 C-0.64 2.33 -3.28 2.66 -6 3 C-6.12375 3.763125 -6.2475 4.52625 -6.375 5.3125 C-7 8 -7 8 -9 11 C-11.125 11.6875 -11.125 11.6875 -13 12 C-12.59709958 6.35939411 -10.78085674 3.96528877 -7 0 C-4.29393021 -1.35303489 -2.8671629 -0.7884698 0 0 Z " transform="translate(351 637)" class="colorF13A34 svgShape"></path><path fill="#0865a0" d="M0 0 C0.9867097 3.11074833 0.96838493 5.16442757 0.22265625 8.328125 C0.03896484 9.12734375 -0.14472656 9.9265625 -0.33398438 10.75 C-0.53314453 11.575 -0.73230469 12.4 -0.9375 13.25 C-1.13279297 14.09046875 -1.32808594 14.9309375 -1.52929688 15.796875 C-2.01142286 17.86648898 -2.50463863 19.93351395 -3 22 C-3.99 21.67 -4.98 21.34 -6 21 C-5.67 19.02 -5.34 17.04 -5 15 C-5.66 14.67 -6.32 14.34 -7 14 C-6.35546875 13.77570313 -5.7109375 13.55140625 -5.046875 13.3203125 C-2.75611148 12.17110544 -2.75611148 12.17110544 -2.390625 9.6171875 C-2.34421875 8.71226562 -2.2978125 7.80734375 -2.25 6.875 C-2.19328125 5.96492188 -2.1365625 5.05484375 -2.078125 4.1171875 C-2.05234375 3.41851562 -2.0265625 2.71984375 -2 2 C-1.34 2 -0.68 2 0 2 C0 1.34 0 0.68 0 0 Z " transform="translate(680 451)" class="color0865A0 svgShape"></path><path fill="#0998a5" d="M0 0 C6.45353615 2.05764921 12.7361263 4.42383482 19 7 C19 7.33 19 7.66 19 8 C17.41632253 7.85795259 15.83306682 7.71119847 14.25 7.5625 C13.36828125 7.48128906 12.4865625 7.40007813 11.578125 7.31640625 C9.30649548 7.03761535 7.20148177 6.61209423 5 6 C5 5.34 5 4.68 5 4 C3.35 4 1.7 4 0 4 C0 2.68 0 1.36 0 0 Z " transform="translate(390 764)" class="color0998A5 svgShape"></path><path fill="#07639e" d="M0 0 C0.33 0 0.66 0 1 0 C0.38277416 9.56700056 -1.8201341 18.69247957 -4 28 C-4.33 28 -4.66 28 -5 28 C-5.23136637 22.4978184 -4.4350346 17.86146222 -3 12.5625 C-2.80921875 11.83095703 -2.6184375 11.09941406 -2.421875 10.34570312 C-1.95549597 8.56180334 -1.47881722 6.78060155 -1 5 C-1.99 4.67 -2.98 4.34 -4 4 C-3.34 3.34 -2.68 2.68 -2 2 C-1.34 2.33 -0.68 2.66 0 3 C0 2.01 0 1.02 0 0 Z " transform="translate(693 387)" class="color07639E svgShape"></path><path fill="#088b95" d="M0 0 C0.66 0.33 1.32 0.66 2 1 C2 1.66 2 2.32 2 3 C3.32 3.33 4.64 3.66 6 4 C6 4.66 6 5.32 6 6 C8.31 6 10.62 6 13 6 C12.67 6.99 12.34 7.98 12 9 C5.79522136 7.06375702 -0.10825719 4.74390859 -6 2 C-3 1 -3 1 0 2 C0 1.34 0 0.68 0 0 Z " transform="translate(354 874)" class="color088B95 svgShape"></path><path fill="#0b8c96" d="M0 0 C2.48262432 2.48262432 3.07286975 4.61775287 4.1875 7.9375 C4.55230469 8.99839844 4.91710937 10.05929687 5.29296875 11.15234375 C6 14 6 14 5 17 C4.34 16.01 3.68 15.02 3 14 C0.41619823 13.74969023 0.41619823 13.74969023 -2 14 C-2 13.34 -2 12.68 -2 12 C-0.68 11.67 0.64 11.34 2 11 C1.34 7.37 0.68 3.74 0 0 Z " transform="translate(890 378)" class="color0B8C96 svgShape"></path><path fill="#0967a1" d="M0 0 C0.66 0.33 1.32 0.66 2 1 C0.046875 3.24609375 0.046875 3.24609375 -1.90625 5.4921875 C-3.19572458 6.95936421 -3.19572458 6.95936421 -3 9 C-4.75 10.0625 -4.75 10.0625 -7 11 C-8.32 10.67 -9.64 10.34 -11 10 C-5.555 5.05 -5.555 5.05 0 0 Z " transform="translate(546 468)" class="color0967A1 svgShape"></path><path fill="#0769a2" d="M0 0 C-0.33 1.32 -0.66 2.64 -1 4 C2.465 3.505 2.465 3.505 6 3 C3.41464321 4.72357119 1.96188386 5.44735018 -0.9375 6.1875 C-1.60652344 6.36667969 -2.27554687 6.54585937 -2.96484375 6.73046875 C-5.24680888 7.03268678 -6.82026659 6.68756692 -9 6 C-8.01 5.34 -7.02 4.68 -6 4 C-6 3.34 -6 2.68 -6 2 C-2.25 0 -2.25 0 0 0 Z " transform="translate(393 576)" class="color0769A2 svgShape"></path><path fill="#028b96" d="M0 0 C1.98 0 3.96 0 6 0 C5.07038578 1.15224028 4.1309875 2.29659176 3.1875 3.4375 C2.40439453 4.39462891 2.40439453 4.39462891 1.60546875 5.37109375 C0 7 0 7 -3 8 C-3 6.68 -3 5.36 -3 4 C-2.34 4 -1.68 4 -1 4 C-0.67 2.68 -0.34 1.36 0 0 Z " transform="translate(785 796)" class="color028B96 svgShape"></path><path fill="#038791" d="M0 0 C0.33 0 0.66 0 1 0 C1.33 2.31 1.66 4.62 2 7 C2.99 7.33 3.98 7.66 5 8 C4.67 8.99 4.34 9.98 4 11 C3.34 11 2.68 11 2 11 C2 13.31 2 15.62 2 18 C1.67 18 1.34 18 1 18 C-0.32594359 12.03325384 -0.0884587 6.07416385 0 0 Z " transform="translate(114 547)" class="color038791 svgShape"></path><path fill="#098e97" d="M0 0 C0.33 0 0.66 0 1 0 C1.33 2.97 1.66 5.94 2 9 C1.34 9 0.68 9 0 9 C-0.33 9.66 -0.66 10.32 -1 11 C-1.66 11 -2.32 11 -3 11 C-2.53199289 6.94393835 -2.12046792 3.53411321 0 0 Z " transform="translate(134 376)" class="color098E97 svgShape"></path><path fill="#128e99" d="M0 0 C0 3 0 3 -1.71484375 4.9375 C-2.44832031 5.618125 -3.18179688 6.29875 -3.9375 7 C-7.20657054 10.00140949 -7.20657054 10.00140949 -9 14 C-10.32 13.67 -11.64 13.34 -13 13 C-8.71 8.71 -4.42 4.42 0 0 Z " transform="translate(233 221)" class="color128E99 svgShape"></path><path fill="#048893" d="M0 0 C0.99 1.32 1.98 2.64 3 4 C2.01 5.485 2.01 5.485 1 7 C0.34 7 -0.32 7 -1 7 C-1.12375 7.78375 -1.2475 8.5675 -1.375 9.375 C-2 12 -2 12 -4 14 C-3.00956295 9.16371695 -2.04301154 4.52381127 0 0 Z " transform="translate(781 593)" class="color048893 svgShape"></path><path fill="#086ba3" d="M0 0 C0.33 0.66 0.66 1.32 1 2 C0.360625 2.598125 -0.27875 3.19625 -0.9375 3.8125 C-3.20310389 5.90810337 -3.20310389 5.90810337 -4 9 C-4.99 8.67 -5.98 8.34 -7 8 C-6.875 5.6875 -6.875 5.6875 -6 3 C-2.9375 1.1875 -2.9375 1.1875 0 0 Z " transform="translate(451 535)" class="color086BA3 svgShape"></path><path fill="#0868a2" d="M0 0 C1.125 3.75 1.125 3.75 0 6 C-2.64860427 6.59355614 -5.29197322 6.74209269 -8 7 C-5.42215154 4.35247996 -3.08351902 2.05567935 0 0 Z " transform="translate(501 504)" class="color0868A2 svgShape"></path><path fill="#098a94" d="M0 0 C0.99 0.33 1.98 0.66 3 1 C1.21046815 1.83790789 -0.58169695 2.67019396 -2.375 3.5 C-3.87160156 4.19609375 -3.87160156 4.19609375 -5.3984375 4.90625 C-8 6 -8 6 -10 6 C-9.6875 4.0625 -9.6875 4.0625 -9 2 C-6 1 -6 1 -2 1 C-1.34 0.67 -0.68 0.34 0 0 Z " transform="translate(676 873)" class="color098A94 svgShape"></path><path fill="#0a8792" d="M0 0 C0.99 0 1.98 0 3 0 C3.66 1.98 4.32 3.96 5 6 C5.66 6 6.32 6 7 6 C8.38232443 7.62626404 9.71937515 9.2925002 11 11 C10.67 11.66 10.34 12.32 10 13 C8.32722165 11.21371169 6.66175557 9.4214925 5 7.625 C4.28457031 6.86316406 4.28457031 6.86316406 3.5546875 6.0859375 C0 2.2265625 0 2.2265625 0 0 Z " transform="translate(201 762)" class="color0A8792 svgShape"></path><path fill="#0b64a0" d="M0 0 C-3.465 1.485 -3.465 1.485 -7 3 C-7 3.66 -7 4.32 -7 5 C-9.64 5 -12.28 5 -15 5 C-10.87384475 1.53402959 -5.43913747 -2.39322049 0 0 Z " transform="translate(402 563)" class="color0B64A0 svgShape"></path><path fill="#058895" d="M0 0 C1.60495567 0.11442461 3.20898119 0.24194694 4.8125 0.375 C5.70582031 0.44460937 6.59914063 0.51421875 7.51953125 0.5859375 C10 1 10 1 13 3 C11.35 3 9.7 3 8 3 C7.67 3.99 7.34 4.98 7 6 C6.34 5.34 5.68 4.68 5 4 C5.33 3.67 5.66 3.34 6 3 C4.68 2.34 3.36 1.68 2 1 C1.67 1.99 1.34 2.98 1 4 C0.67 2.68 0.34 1.36 0 0 Z " transform="translate(593 121)" class="color058895 svgShape"></path><path fill="#fcc51b" d="M0 0 C4.4062186 1.34634457 6.43077702 3.19374374 9 7 C9 7.66 9 8.32 9 9 C7.68 9.33 6.36 9.66 5 10 C4.731875 8.865625 4.46375 7.73125 4.1875 6.5625 C3.795625 5.386875 3.40375 4.21125 3 3 C2.01 2.67 1.02 2.34 0 2 C0 1.34 0 0.68 0 0 Z " transform="translate(548 592)" class="colorFCC51B svgShape"></path><path fill="#0b8a94" d="M0 0 C-1.65 0.33 -3.3 0.66 -5 1 C-5.33 1.99 -5.66 2.98 -6 4 C-6.66 3.67 -7.32 3.34 -8 3 C-10.3400417 3.28241883 -12.67504723 3.61250787 -15 4 C-12.83900627 1.83900627 -11.4789582 1.28436284 -8.625 0.3125 C-7.46871094 -0.09548828 -7.46871094 -0.09548828 -6.2890625 -0.51171875 C-3.79944692 -1.04278009 -2.38446982 -0.81115526 0 0 Z " transform="translate(390 132)" class="color0B8A94 svgShape"></path><path fill="#0967a1" d="M0 0 C2.31 0.33 4.62 0.66 7 1 C3.87378374 4.39417765 1.43458973 6.6062718 -3 8 C-2.2575 7.4121875 -2.2575 7.4121875 -1.5 6.8125 C0.45593143 4.44908285 0.24207973 2.98564997 0 0 Z " transform="translate(603 490)" class="color0967A1 svgShape"></path><path fill="#058a95" d="M0 0 C0.66 0.33 1.32 0.66 2 1 C2 1.66 2 2.32 2 3 C-0.90567134 5.01782732 -3.51669784 6.35494404 -7 7 C-5.55609075 3.19333016 -3.65047197 1.73397418 0 0 Z " transform="translate(285 180)" class="color058A95 svgShape"></path><path fill="#098c96" d="M0 0 C1.32 0 2.64 0 4 0 C4 0.66 4 1.32 4 2 C2.73160474 2.50615298 1.46016898 3.00469099 0.1875 3.5 C-0.87404297 3.91765625 -0.87404297 3.91765625 -1.95703125 4.34375 C-4 5 -4 5 -7 5 C-6.67 4.01 -6.34 3.02 -6 2 C-4.02 2 -2.04 2 0 2 C0 1.34 0 0.68 0 0 Z " transform="translate(652 882)" class="color098C96 svgShape"></path><path fill="#06639e" d="M0 0 C0.33 0 0.66 0 1 0 C1.2475 0.9075 1.495 1.815 1.75 2.75 C3.03981342 6.10351489 4.31971042 7.67708236 7 10 C4 10 4 10 2.17578125 8.46875 C1.56089844 7.8190625 0.94601562 7.169375 0.3125 6.5 C-0.31011719 5.8503125 -0.93273437 5.200625 -1.57421875 4.53125 C-2.04472656 4.0259375 -2.51523437 3.520625 -3 3 C-2.01 2.67 -1.02 2.34 0 2 C0 1.34 0 0.68 0 0 Z " transform="translate(590 409)" class="color06639E svgShape"></path><path fill="#0b69a3" d="M0 0 C0.598125 0.309375 1.19625 0.61875 1.8125 0.9375 C4.08956772 2.10209704 4.08956772 2.10209704 7 3 C7.66 2.34 8.32 1.68 9 1 C8.67 3.31 8.34 5.62 8 8 C6.85073734 7.04578192 5.70569459 6.08647955 4.5625 5.125 C3.92441406 4.59132813 3.28632812 4.05765625 2.62890625 3.5078125 C1 2 1 2 0 0 Z " transform="translate(565 391)" class="color0B69A3 svgShape"></path><path fill="#209fa8" d="M0 0 C1.32 0.33 2.64 0.66 4 1 C4 1.66 4 2.32 4 3 C7.3 3.33 10.6 3.66 14 4 C14 4.33 14 4.66 14 5 C9.71 5 5.42 5 1 5 C0.67 3.35 0.34 1.7 0 0 Z " transform="translate(519 905)" class="color209FA8 svgShape"></path><path fill="#1695a2" d="M0 0 C0 0.66 0 1.32 0 2 C-3 4 -3 4 -6 5 C-7.02104551 4.02149805 -8.0206121 3.02019573 -9 2 C-9 1.67 -9 1.34 -9 1 C-2.25 0 -2.25 0 0 0 Z " transform="translate(560 786)" class="color1695A2 svgShape"></path><path fill="#078a93" d="M0 0 C0.33 0.99 0.66 1.98 1 3 C0.2884375 3.61875 0.2884375 3.61875 -0.4375 4.25 C-2.16266518 6.182185 -2.56584875 7.48192275 -3 10 C-3.99 9.67 -4.98 9.34 -6 9 C-2.25 2.25 -2.25 2.25 0 0 Z " transform="translate(186 276)" class="color078A93 svgShape"></path><path fill="#1a959e" d="M0 0 C3.7952131 1.49097658 5.61042731 3.75700849 8 7 C5 7 5 7 2.3125 4.625 C0 2 0 2 0 0 Z " transform="translate(790 222)" class="color1A959E svgShape"></path><path fill="#018896" d="M0 0 C0.33 0 0.66 0 1 0 C1.375 2.1875 1.375 2.1875 1 5 C-0.83961648 6.99022836 -2.79186148 8.38989899 -5 10 C-4.71125 9.443125 -4.4225 8.88625 -4.125 8.3125 C-2.94687457 5.9654682 -2.94687457 5.9654682 -1.9375 3.3125 C-1 1 -1 1 0 0 Z " transform="translate(818 763)" class="color018896 svgShape"></path><path fill="#038690" d="M0 0 C0.33 0 0.66 0 1 0 C1.07654536 4.51617599 1.10228696 8.59085217 0 13 C-0.33 13 -0.66 13 -1 13 C-1.22245393 11.39773045 -1.42746669 9.79303233 -1.625 8.1875 C-1.74101563 7.29417969 -1.85703125 6.40085937 -1.9765625 5.48046875 C-2 3 -2 3 0 0 Z " transform="translate(907 565)" class="color038690 svgShape"></path><path fill="#06629f" d="M0 0 C1.4540625 0.0309375 1.4540625 0.0309375 2.9375 0.0625 C1.64784824 1.43812854 0.31060707 2.77016393 -1.0625 4.0625 C-1.7225 4.0625 -2.3825 4.0625 -3.0625 4.0625 C-3.7225 4.7225 -4.3825 5.3825 -5.0625 6.0625 C-3.98897059 0.08140756 -3.98897059 0.08140756 0 0 Z " transform="translate(569.063 383.938)" class="color06629F svgShape"></path><path fill="#068b97" d="M0 0 C2.97 1.98 2.97 1.98 6 4 C5.67 5.32 5.34 6.64 5 8 C4.01 7.34 3.02 6.68 2 6 C2.33 5.01 2.66 4.02 3 3 C2.01 2.67 1.02 2.34 0 2 C0 1.34 0 0.68 0 0 Z " transform="translate(755 192)" class="color068B97 svgShape"></path><path fill="#0e9baa" d="M0 0 C3.93673644 1.31224548 6.22719294 2.91910327 9 6 C5.32579134 5.69381595 4.21864487 5.24228216 1.6875 2.4375 C1.130625 1.633125 0.57375 0.82875 0 0 Z " transform="translate(346 738)" class="color0E9BAA svgShape"></path><path fill="#076ca4" d="M0 0 C1.67542976 0.28604898 3.34385343 0.61781233 5 1 C4.34 2.32 3.68 3.64 3 5 C3 4.34 3 3.68 3 3 C2.34 3 1.68 3 1 3 C0.67 3.66 0.34 4.32 0 5 C-0.5625 3.0625 -0.5625 3.0625 -1 1 C-0.67 0.67 -0.34 0.34 0 0 Z " transform="translate(635 371)" class="color076CA4 svgShape"></path><path fill="#199aa4" d="M0 0 C2.64 0.33 5.28 0.66 8 1 C7.67 1.99 7.34 2.98 7 4 C3.73045798 3.43628586 2.17424117 2.50037734 0 0 Z " transform="translate(461 115)" class="color199AA4 svgShape"></path></svg></g></svg>